<mxfile host="app.diagrams.net" modified="2022-02-07T14:24:09.071Z" agent="5.0 (Windows NT 10.0; Win64; x64) AppleWebKit/537.36 (KHTML, like Gecko) Chrome/98.0.4758.80 Safari/537.36 Edg/98.0.1108.43" etag="4Cslr6cqj_0zrha8ea36" version="16.5.3" type="github">
  <diagram id="R2lEEEUBdFMjLlhIrx00" name="Page-1">
    <mxGraphModel dx="920" dy="551" grid="1" gridSize="10" guides="1" tooltips="1" connect="1" arrows="1" fold="1" page="1" pageScale="1" pageWidth="1654" pageHeight="1169" math="0" shadow="0" extFonts="Permanent Marker^https://fonts.googleapis.com/css?family=Permanent+Marker">
      <root>
        <mxCell id="0" />
        <mxCell id="1" parent="0" />
        <mxCell id="yHNcIB4m2WFZ388r3CNA-1" value="HIRING_DETAILS_&lt;br&gt;TRANSACTIONS" style="rounded=0;whiteSpace=wrap;html=1;" vertex="1" parent="1">
          <mxGeometry x="695" y="210" width="120" height="50" as="geometry" />
        </mxCell>
        <mxCell id="yHNcIB4m2WFZ388r3CNA-2" value="INTERVIEW_DATES" style="rounded=0;whiteSpace=wrap;html=1;" vertex="1" parent="1">
          <mxGeometry x="450" y="340" width="120" height="50" as="geometry" />
        </mxCell>
        <mxCell id="yHNcIB4m2WFZ388r3CNA-3" value="DOMICILE_MASTER" style="rounded=0;whiteSpace=wrap;html=1;" vertex="1" parent="1">
          <mxGeometry x="460" y="580" width="120" height="40" as="geometry" />
        </mxCell>
        <mxCell id="yHNcIB4m2WFZ388r3CNA-4" value="JOINING_STATUS" style="rounded=0;whiteSpace=wrap;html=1;" vertex="1" parent="1">
          <mxGeometry x="1110" y="330" width="120" height="40" as="geometry" />
        </mxCell>
        <mxCell id="yHNcIB4m2WFZ388r3CNA-5" value="POSTAL_CODE_&lt;br&gt;MASTER" style="rounded=0;whiteSpace=wrap;html=1;" vertex="1" parent="1">
          <mxGeometry x="1100" y="420" width="120" height="50" as="geometry" />
        </mxCell>
        <mxCell id="yHNcIB4m2WFZ388r3CNA-6" value="LOCATION_MASTER" style="rounded=0;whiteSpace=wrap;html=1;" vertex="1" parent="1">
          <mxGeometry x="1100" y="570" width="130" height="40" as="geometry" />
        </mxCell>
        <mxCell id="yHNcIB4m2WFZ388r3CNA-7" value="REGION_LOCATION_&lt;br&gt;MAPPING" style="rounded=0;whiteSpace=wrap;html=1;" vertex="1" parent="1">
          <mxGeometry x="850" y="680" width="130" height="60" as="geometry" />
        </mxCell>
        <mxCell id="yHNcIB4m2WFZ388r3CNA-8" value="REGION_MASTER" style="rounded=0;whiteSpace=wrap;html=1;" vertex="1" parent="1">
          <mxGeometry x="520" y="700" width="120" height="50" as="geometry" />
        </mxCell>
        <mxCell id="yHNcIB4m2WFZ388r3CNA-11" value="LOB_MASTER" style="rounded=0;whiteSpace=wrap;html=1;" vertex="1" parent="1">
          <mxGeometry x="450" y="460" width="120" height="40" as="geometry" />
        </mxCell>
        <mxCell id="yHNcIB4m2WFZ388r3CNA-12" value="s.no." style="ellipse;whiteSpace=wrap;html=1;" vertex="1" parent="1">
          <mxGeometry x="560" y="170" width="70" height="40" as="geometry" />
        </mxCell>
        <mxCell id="yHNcIB4m2WFZ388r3CNA-13" value="candidate_ref" style="ellipse;whiteSpace=wrap;html=1;" vertex="1" parent="1">
          <mxGeometry x="580" y="120" width="90" height="40" as="geometry" />
        </mxCell>
        <mxCell id="yHNcIB4m2WFZ388r3CNA-16" value="doj_extended" style="ellipse;whiteSpace=wrap;html=1;" vertex="1" parent="1">
          <mxGeometry x="660" y="90" width="90" height="30" as="geometry" />
        </mxCell>
        <mxCell id="yHNcIB4m2WFZ388r3CNA-17" value="duration_to_&lt;br&gt;accept_offer" style="ellipse;whiteSpace=wrap;html=1;" vertex="1" parent="1">
          <mxGeometry x="770" y="80" width="90" height="40" as="geometry" />
        </mxCell>
        <mxCell id="yHNcIB4m2WFZ388r3CNA-19" value="notice_period" style="ellipse;whiteSpace=wrap;html=1;" vertex="1" parent="1">
          <mxGeometry x="870" y="100" width="90" height="40" as="geometry" />
        </mxCell>
        <mxCell id="yHNcIB4m2WFZ388r3CNA-21" value="offered_band" style="ellipse;whiteSpace=wrap;html=1;" vertex="1" parent="1">
          <mxGeometry x="910" y="140" width="90" height="40" as="geometry" />
        </mxCell>
        <mxCell id="yHNcIB4m2WFZ388r3CNA-23" value="percent_hike_&lt;br&gt;expected_in-ctc" style="ellipse;whiteSpace=wrap;html=1;" vertex="1" parent="1">
          <mxGeometry x="920" y="190" width="110" height="50" as="geometry" />
        </mxCell>
        <mxCell id="yHNcIB4m2WFZ388r3CNA-24" value="percent_hike_&lt;br&gt;offered_in ctc" style="ellipse;whiteSpace=wrap;html=1;" vertex="1" parent="1">
          <mxGeometry x="1040" y="135" width="110" height="50" as="geometry" />
        </mxCell>
        <mxCell id="yHNcIB4m2WFZ388r3CNA-25" value="percent_&lt;br&gt;difference_ctc" style="ellipse;whiteSpace=wrap;html=1;" vertex="1" parent="1">
          <mxGeometry x="1060" y="220" width="100" height="50" as="geometry" />
        </mxCell>
        <mxCell id="yHNcIB4m2WFZ388r3CNA-26" value="candidate_ref" style="ellipse;whiteSpace=wrap;html=1;" vertex="1" parent="1">
          <mxGeometry x="690" y="160" width="90" height="40" as="geometry" />
        </mxCell>
        <mxCell id="yHNcIB4m2WFZ388r3CNA-27" value="joining_bonus" style="ellipse;whiteSpace=wrap;html=1;" vertex="1" parent="1">
          <mxGeometry x="980" y="260" width="90" height="40" as="geometry" />
        </mxCell>
      </root>
    </mxGraphModel>
  </diagram>
</mxfile>
